<?xml version="1.0" standalone="no"?>
<!DOCTYPE svg PUBLIC "-//W3C//DTD SVG 20010904//EN"
 "http://www.w3.org/TR/2001/REC-SVG-20010904/DTD/svg10.dtd">
<svg version="1.0" xmlns="http://www.w3.org/2000/svg"
 width="303.000000pt" height="83.000000pt" viewBox="0 0 303.000000 83.000000"
 preserveAspectRatio="xMidYMid meet">

<g transform="translate(0.000000,83.000000) scale(0.100000,-0.100000)"
fill="#000000" stroke="none">
<path d="M372 728 c-7 -7 -12 -22 -12 -35 0 -13 -4 -23 -10 -23 -14 0 -12 -27
3 -33 25 -11 -11 -23 -60 -20 -79 3 -132 14 -144 29 -14 17 -29 18 -29 3 0
-27 36 -44 104 -49 l71 -5 -3 -54 c-1 -29 -11 -74 -22 -99 -11 -24 -20 -49
-20 -54 0 -6 -11 -19 -25 -30 -14 -11 -25 -28 -25 -39 0 -10 -5 -19 -11 -19
-20 0 -38 -34 -39 -72 0 -28 -5 -38 -20 -43 -19 -6 -19 -25 0 -25 11 0 58 69
77 112 11 26 35 36 68 28 6 -1 23 -2 39 -2 20 1 40 -9 60 -29 16 -16 38 -29
48 -29 10 0 18 -7 18 -15 0 -8 7 -15 15 -15 9 0 27 -12 41 -27 25 -27 41 -26
30 3 -3 9 -15 18 -25 21 -11 3 -22 16 -25 29 -4 13 -13 24 -21 24 -7 0 -17 9
-20 20 -3 11 -11 20 -16 20 -5 0 -9 11 -9 24 0 13 -7 29 -15 36 -8 7 -15 22
-15 34 0 12 -5 27 -10 32 -7 7 -2 21 15 44 14 19 25 38 25 43 0 19 30 37 62
37 43 0 50 6 76 62 27 59 27 68 1 68 -19 0 -20 -2 -8 -16 12 -15 11 -16 -7
-10 -13 4 -31 -2 -54 -19 -19 -14 -29 -25 -23 -25 6 0 16 6 22 14 18 22 49 26
56 8 7 -20 -20 -42 -50 -42 -12 0 -26 -5 -33 -12 -9 -9 -12 -8 -12 5 0 9 -8
17 -17 18 -11 0 -13 3 -5 6 15 6 17 103 2 103 -5 0 -10 7 -10 15 0 18 -21 20
-38 3z m-6 -162 c7 -30 -14 -75 -26 -55 -5 7 -6 17 -3 23 3 5 1 6 -5 2 -8 -5
-12 3 -12 23 0 24 4 31 20 31 12 0 22 -9 26 -24z m59 15 c3 -5 2 -12 -3 -15
-5 -3 -9 1 -9 9 0 17 3 19 12 6z m-31 -267 c3 -8 2 -12 -4 -9 -6 3 -10 10 -10
16 0 14 7 11 14 -7z"/>
<path d="M610 655 l0 -45 40 0 40 0 0 45 0 45 -40 0 -40 0 0 -45z"/>
<path d="M760 445 l0 -255 115 0 115 0 0 60 0 60 -70 0 -70 0 0 195 0 195 -45
0 -45 0 0 -255z"/>
<path d="M1030 445 l0 -255 115 0 115 0 0 60 0 60 -70 0 -70 0 0 195 0 195
-45 0 -45 0 0 -255z"/>
<path d="M1270 698 c0 -2 9 -70 20 -152 11 -81 20 -152 20 -157 0 -6 10 -5 21
2 12 6 44 9 71 7 44 -5 49 -3 53 18 3 13 8 36 12 52 6 27 6 27 13 -8 9 -51 17
-60 53 -60 27 0 36 -6 52 -36 l19 -35 14 28 c9 15 17 46 19 68 2 22 11 89 19
148 8 59 14 112 14 117 0 6 -18 10 -39 10 -46 0 -47 -1 -56 -116 -13 -156 -19
-162 -39 -34 -23 157 -20 150 -67 150 -21 0 -39 -3 -39 -7 -1 -24 -41 -247
-45 -251 -3 -3 -5 1 -5 9 0 8 -5 52 -10 99 -5 47 -11 100 -12 118 -2 31 -4 32
-45 32 -24 0 -43 -1 -43 -2z"/>
<path d="M1776 684 c-3 -8 -26 -116 -51 -240 -25 -123 -48 -231 -51 -239 -5
-12 2 -15 36 -15 44 0 46 3 25 53 -5 13 -2 17 14 17 24 0 28 22 6 40 -8 7 -15
23 -15 36 0 23 31 64 49 64 5 0 14 36 21 80 7 45 14 79 17 77 2 -2 10 -37 17
-77 12 -61 19 -77 45 -97 17 -14 31 -29 31 -34 0 -13 -64 -11 -77 2 -7 7 -19
9 -29 5 -23 -9 -13 -16 43 -35 54 -18 77 -56 55 -91 -20 -33 -14 -41 29 -38
35 2 40 5 35 22 -7 26 -25 114 -67 324 l-33 162 -47 0 c-33 0 -49 -5 -53 -16z"/>
<path d="M2010 550 l0 -150 40 0 c38 0 40 1 40 33 l1 32 19 -35 c11 -19 19
-45 20 -58 0 -13 4 -21 9 -17 5 3 12 -7 14 -22 2 -18 5 -10 6 20 l1 47 60 0
60 0 0 150 0 150 -40 0 -40 0 -1 -137 c0 -134 -1 -137 -16 -103 -21 47 -66
164 -69 180 0 3 -6 17 -12 33 -10 23 -17 27 -52 27 l-40 0 0 -150z"/>
<path d="M2430 690 c0 -5 -5 -10 -10 -10 -18 0 -49 -34 -64 -72 -32 -76 -32
-294 0 -335 11 -14 14 -14 13 -3 -1 8 -1 41 0 73 1 54 2 57 26 57 24 0 25 3
25 55 0 74 25 125 61 125 20 0 30 -7 39 -30 12 -28 40 -42 40 -20 0 6 11 10
25 10 17 0 25 5 25 18 0 33 -25 88 -52 115 -22 22 -36 27 -78 27 -27 0 -50 -4
-50 -10z"/>
<path d="M2664 638 c13 -35 27 -72 31 -83 4 -11 11 -29 15 -40 5 -11 16 -41
26 -67 9 -27 23 -48 30 -48 16 0 54 -35 54 -50 0 -5 -16 -10 -35 -10 -19 0
-35 -4 -35 -10 0 -5 7 -10 15 -10 21 0 65 -45 65 -65 0 -9 -11 -27 -25 -40
l-24 -25 29 0 30 0 0 108 c0 105 1 109 55 252 30 80 55 146 55 148 0 1 -22 2
-50 2 -43 0 -50 -3 -50 -19 0 -11 -4 -23 -10 -26 -5 -3 -10 -14 -10 -23 0 -9
-9 -35 -19 -57 l-18 -40 -12 40 c-40 126 -39 125 -92 125 l-49 0 24 -62z"/>
<path d="M610 395 l0 -205 40 0 40 0 0 205 0 205 -40 0 -40 0 0 -205z"/>
<path d="M2480 441 c0 -15 5 -43 12 -62 12 -33 12 -33 18 -9 5 21 12 25 48 28
l42 3 0 -105 c0 -64 4 -106 10 -106 6 0 10 53 10 140 l0 140 -70 0 -70 0 0
-29z"/>
<path d="M1502 379 c3 -8 15 -53 28 -101 13 -49 27 -88 32 -88 4 0 8 20 8 46
0 32 -7 56 -25 82 -14 20 -25 42 -25 49 0 6 -5 15 -12 19 -7 5 -9 2 -6 -7z"/>
<path d="M1360 351 c0 -13 8 -17 48 -26 39 -8 42 5 5 23 -32 14 -53 16 -53 3z"/>
<path d="M2070 270 c0 -47 4 -80 10 -80 6 0 10 33 10 80 0 47 -4 80 -10 80 -6
0 -10 -33 -10 -80z"/>
<path d="M2230 335 c0 -9 9 -15 25 -15 16 0 25 6 25 15 0 9 -9 15 -25 15 -16
0 -25 -6 -25 -15z"/>
<path d="M2420 258 c0 -57 3 -68 16 -68 14 0 16 8 11 50 -10 85 -26 95 -27 18z"/>
<path d="M2532 275 c-7 -27 -15 -58 -18 -67 -3 -12 0 -18 10 -18 16 0 31 67
24 111 -3 18 -7 12 -16 -26z"/>
<path d="M1320 283 c0 -13 56 -53 74 -53 27 0 27 30 0 40 -45 17 -74 22 -74
13z"/>
<path d="M2230 255 c0 -9 9 -15 25 -15 16 0 25 6 25 15 0 9 -9 15 -25 15 -16
0 -25 -6 -25 -15z"/>
<path d="M1270 120 c0 -35 3 -40 23 -39 12 0 16 3 10 6 -7 2 -13 20 -13 39 0
19 -4 34 -10 34 -5 0 -10 -18 -10 -40z"/>
<path d="M1659 126 c-15 -42 -29 -47 -29 -11 0 20 -5 25 -22 24 -19 -1 -20 -2
-5 -6 18 -5 17 -6 -2 -20 -12 -8 -19 -19 -16 -24 9 -13 62 -11 86 4 17 10 23
10 26 0 3 -7 9 -13 13 -13 12 0 -14 73 -27 77 -6 2 -17 -12 -24 -31z m31 -6
c0 -5 -4 -10 -10 -10 -5 0 -10 5 -10 10 0 6 5 10 10 10 6 0 10 -4 10 -10z
m-70 -20 c0 -5 -5 -10 -11 -10 -5 0 -7 5 -4 10 3 6 8 10 11 10 2 0 4 -4 4 -10z"/>
<path d="M1332 110 c0 -19 2 -27 5 -17 2 9 2 25 0 35 -3 9 -5 1 -5 -18z"/>
<path d="M1361 110 c13 -37 22 -38 37 -5 15 32 15 35 2 35 -5 0 -10 -7 -10
-15 0 -8 -4 -15 -10 -15 -5 0 -10 7 -10 15 0 8 -4 15 -9 15 -6 0 -6 -12 0 -30z"/>
<path d="M1421 108 c2 -28 2 -29 6 -8 3 14 10 28 17 32 7 5 5 8 -6 8 -14 0
-18 -8 -17 -32z"/>
<path d="M1473 133 c18 -5 17 -6 -2 -20 -12 -8 -19 -19 -16 -24 10 -15 55 -11
55 5 0 29 -13 46 -34 45 -18 -1 -18 -2 -3 -6z m17 -33 c0 -5 -5 -10 -11 -10
-5 0 -7 5 -4 10 3 6 8 10 11 10 2 0 4 -4 4 -10z"/>
<path d="M1521 108 c1 -22 3 -26 6 -13 3 11 10 26 15 33 8 9 6 12 -6 12 -12 0
-16 -9 -15 -32z"/>
<path d="M1562 110 c0 -19 2 -27 5 -17 2 9 2 25 0 35 -3 9 -5 1 -5 -18z"/>
<path d="M1730 100 c0 -22 2 -40 5 -40 3 0 16 9 29 21 30 26 24 59 -10 59 -21
0 -24 -5 -24 -40z m40 10 c0 -11 -4 -20 -9 -20 -11 0 -22 26 -14 34 12 12 23
5 23 -14z"/>
<path d="M1800 100 c0 -22 2 -40 5 -40 3 0 16 9 29 21 30 26 24 59 -10 59 -21
0 -24 -5 -24 -40z m40 10 c0 -11 -4 -20 -10 -20 -5 0 -10 9 -10 20 0 11 5 20
10 20 6 0 10 -9 10 -20z"/>
</g>
</svg>
